Coordinates
version=1
nRows=10
nColumns=40
inDegrees=yes

Units are S.I. units (second, meters, Newtons, ...)
Angles are in degrees.

endheader
time	pelvis_tilt	pelvis_list	pelvis_rotation	pelvis_tx	pelvis_ty	pelvis_tz	hip_flexion_r	hip_adduction_r	hip_rotation_r	knee_angle_r	knee_angle_r_beta	ankle_angle_r	subtalar_angle_r	mtp_angle_r	hip_flexion_l	hip_adduction_l	hip_rotation_l	knee_angle_l	knee_angle_l_beta	ankle_angle_l	subtalar_angle_l	mtp_angle_l	lumbar_extension	lumbar_bending	lumbar_rotation	arm_flex_r	arm_add_r	arm_rot_r	elbow_flex_r	pro_sup_r	wrist_flex_r	wrist_dev_r	arm_flex_l	arm_add_l	arm_rot_l	elbow_flex_l	pro_sup_l	wrist_flex_l	wrist_dev_l
     41.28750000	     -6.15715891	     -4.56092253	      2.23805811	      1.06909867	      0.91672188	      0.44875495	     -2.22938036	     -2.31252151	    -15.39791568	     25.53458622	     25.53458622	     12.48238112	      4.64221800	    -17.69772011	     30.57107151	     -5.44673027	     -3.16963297	     26.57748453	     26.57748453	      6.31951663	    -16.05208387	      7.66630955	     -6.69146415	      6.53027680	      6.16941114	     40.36604915	    -18.48663996	     -7.16545121	    105.65464580	     44.16964713	      0.00000000	      0.00000000	    -17.08869497	     -7.36457047	     11.22131304	     28.89892766	     44.15495049	      0.00000000	      0.00000000
     41.29914286	     -6.06159465	     -4.34249531	      2.10106703	      1.06910312	      0.91822750	      0.44541729	     -0.78562567	     -3.39405386	    -14.90377255	     29.32805884	     29.32805884	     10.90809202	      3.19920499	    -18.75653805	     29.68896974	     -5.10830145	     -3.47358860	     26.51679320	     26.51679320	      6.96058982	    -16.00908045	      7.39515375	     -6.77005700	      6.43229935	      5.71927850	     38.54012742	    -18.28668082	     -7.00516387	    105.02760599	     44.18775902	      0.00000000	      0.00000000	    -15.78774288	     -7.42560883	     11.15092907	     29.52235718	     44.19907404	      0.00000000	      0.00000000
     41.31078571	     -5.96521086	     -4.19694846	      1.94695216	      1.06894532	      0.91959622	      0.44229038	      0.86411717	     -4.29730715	    -14.10485251	     33.28514145	     33.28514145	      8.81332549	      1.05511306	    -19.84602607	     28.78229283	     -4.82668891	     -3.67469224	     26.38238993	     26.38238993	      7.55182409	    -16.01928774	      7.16341865	     -6.87527445	      6.39353517	      5.42800411	     36.53076559	    -18.17492106	     -7.00874833	    104.32822489	     44.21196762	      0.00000000	      0.00000000	    -14.44549363	     -7.65182688	     10.95464184	     30.43105017	     44.25938825	      0.00000000	      0.00000000
     41.32242857	     -5.80169747	     -4.01186734	      1.81626556	      1.06863447	      0.92081109	      0.43927862	      2.62515205	     -5.19176529	    -13.27428806	     37.41019272	     37.41019272	      6.37404863	     -1.35520951	    -20.61826415	     27.85403754	     -4.51832345	     -3.93987621	     26.30975926	     26.30975926	      8.09643449	    -16.00682086	      6.91789629	     -7.03368952	      6.32992160	      5.14423730	     34.37071874	    -17.98568295	     -7.03687816	    103.46134719	     44.23925016	      0.00000000	      0.00000000	    -12.97062812	     -7.96511478	     10.70467509	     31.47269499	     44.32514005	      0.00000000	      0.00000000
     41.33407143	     -5.71411296	     -4.13733419	      1.69670215	      1.06814672	      0.92181791	      0.43666350	      4.55702276	     -5.37687136	    -11.88968486	     41.24893040	     41.24893040	      2.72209606	     -5.75379276	    -22.62173618	     27.05270166	     -4.53068313	     -4.00930822	     26.24169070	     26.24169070	      8.64130217	    -15.95580045	      6.55151993	     -7.14584305	      6.54566896	      5.17872171	     31.96548279	    -17.86313674	     -8.19025094	    102.32896418	     44.33518551	      0.00000000	      0.00000000	    -11.81473949	     -8.42190304	     10.03086401	     33.94736257	     44.47330698	      0.00000000	      0.00000000
     41.34571429	     -5.55307139	     -3.90184439	      1.59896970	      1.06753156	      0.92265879	      0.43379178	      6.59730633	     -6.29993342	    -11.27519215	     45.48809793	     45.48809793	     -0.05490761	     -7.81119055	    -22.28502671	     26.13827376	     -4.16633233	     -4.27061639	     26.13287125	     26.13287125	      9.13409939	    -15.84350264	      6.29615854	     -7.32776699	      6.41015812	      4.75475890	     29.75090925	    -17.54423772	     -8.07096599	    101.08437354	     44.36848583	      0.00000000	      0.00000000	    -10.15846549	     -8.79855440	      9.79102042	     34.91650702	     44.53680557	      0.00000000	      0.00000000
     41.35735714	     -5.48878237	     -3.93820859	      1.50528477	      1.06664894	      0.92328950	      0.43127695	      8.85985964	     -6.56734340	    -10.24519009	     49.52536856	     49.52536856	     -2.99343362	    -11.00699369	    -20.84869097	     25.41061644	     -4.08256452	     -4.35798167	     26.09324591	     26.09324591	      9.61211372	    -15.78621533	      5.98383711	     -7.39263142	      6.56941505	      4.66231816	     27.45579238	    -17.42814209	     -8.65005766	     98.92671547	     44.45901330	      0.00000000	      0.00000000	     -8.51317091	     -9.21667798	      9.40076056	     36.58651251	     44.62771190	      0.00000000	      0.00000000
     41.36900000	     -5.32458831	     -3.84972005	      1.40106410	      1.06570665	      0.92388158	      0.42886498	     11.11780330	     -7.01169310	     -9.43295209	     53.57353861	     53.57353861	     -4.96639985	    -12.81689042	    -17.21924291	     24.58164591	     -3.91196568	     -4.57562479	     26.07448767	     26.07448767	     10.08613739	    -15.59373829	      5.49236172	     -7.58653207	      6.54176900	      4.21957913	     25.46001419	    -16.48387538	     -9.76617203	     96.21297571	     44.60864111	      0.00000000	      0.00000000	     -7.29346365	     -9.86325739	      8.94859511	     39.20125616	     44.76135214	      0.00000000	      0.00000000
     41.38064286	     -5.21802794	     -3.77213999	      1.30593941	      1.06459191	      0.92437901	      0.42651873	     13.50940673	     -7.38951199	     -8.71861695	     57.44296415	     57.44296415	     -6.19505661	    -14.05236835	    -12.06141469	     23.81387060	     -3.73160703	     -4.73588098	     26.01964470	     26.01964470	     10.54552926	    -15.49714071	      5.14932528	     -7.72159386	      6.56184397	      3.87269709	     23.46477615	    -15.99389273	    -10.15509555	     93.30594102	     44.74589307	      0.00000000	      0.00000000	     -5.63173921	    -10.43260636	      8.72467048	     40.98609576	     44.88987351	      0.00000000	      0.00000000
     41.39228571	     -5.15876636	     -3.62484070	      1.15088447	      1.06343673	      0.92481380	      0.42429147	     15.81831417	     -7.76581015	     -8.03385688	     60.67871207	     60.67871207	     -8.22054597	    -15.91812727	    -10.50971662	     23.03410787	     -3.48411453	     -4.94865027	     25.85928698	     25.85928698	     11.03572203	    -15.44058369	      4.95436184	     -7.84495918	      6.50200700	      3.79000199	     21.05845091	    -15.92115814	    -10.20215252	     91.10619119	     44.81297983	      0.00000000	      0.00000000	     -3.60156334	    -10.87849837	      8.43388150	     42.08947897	     44.96019946	      0.00000000	      0.00000000
